<?xml version="1.0" encoding="UTF-8" standalone="no"?>
<svg
   xmlns:dc="http://purl.org/dc/elements/1.1/"
   xmlns:cc="http://creativecommons.org/ns#"
   xmlns:rdf="http://www.w3.org/1999/02/22-rdf-syntax-ns#"
   xmlns:svg="http://www.w3.org/2000/svg"
   xmlns="http://www.w3.org/2000/svg"
   xmlns:sodipodi="http://sodipodi.sourceforge.net/DTD/sodipodi-0.dtd"
   xmlns:inkscape="http://www.inkscape.org/namespaces/inkscape"
   enable-background="new 0 0 512 512"
   height="512px"
   id="Layer_1"
   version="1.1"
   viewBox="0 0 512 512"
   width="512px"
   xml:space="preserve"
   inkscape:version="0.91 r13725"
   sodipodi:docname="1478953743_pen-15.svg"><metadata
     id="metadata9"><rdf:RDF><cc:Work
         rdf:about=""><dc:format>image/svg+xml</dc:format><dc:type
           rdf:resource="http://purl.org/dc/dcmitype/StillImage" /></cc:Work></rdf:RDF></metadata><defs
     id="defs7" /><sodipodi:namedview
     pagecolor="#ffffff"
     bordercolor="#666666"
     borderopacity="1"
     objecttolerance="10"
     gridtolerance="10"
     guidetolerance="10"
     inkscape:pageopacity="0"
     inkscape:pageshadow="2"
     inkscape:window-width="1366"
     inkscape:window-height="745"
     id="namedview5"
     showgrid="false"
     inkscape:zoom="0.4609375"
     inkscape:cx="256"
     inkscape:cy="256"
     inkscape:window-x="-8"
     inkscape:window-y="-8"
     inkscape:window-maximized="1"
     inkscape:current-layer="Layer_1" /><path
     d="M493.278,154.515l-22.625,22.641L334.871,41.39l22.625-22.641c25-25,65.531-25,90.531,0l45.25,45.266  C518.246,89,518.246,129.515,493.278,154.515z M176.465,426.031c-6.25,6.25-6.25,16.375,0,22.625c6.25,6.281,16.375,6.281,22.625,0  l248.938-248.875l-22.656-22.641L176.465,426.031z M63.309,312.906c-6.25,6.25-6.25,16.375,0,22.625s16.375,6.25,22.625,0  L334.871,86.64l-22.625-22.625L63.309,312.906z M357.465,109.25L108.559,358.156c-12.5,12.469-12.469,32.75,0,45.25  c12.5,12.5,32.75,12.563,45.281-0.031l248.906-248.859L357.465,109.25z M153.778,471.219c-7.656-7.656-11.344-17.375-12.719-27.375  c-3.25,0.5-6.531,0.969-9.875,0.969c-17.094,0-33.156-6.688-45.25-18.781c-12.094-12.125-18.75-28.156-18.75-45.25  c0-3.125,0.469-6.156,0.906-9.188c-10.344-1.406-19.906-5.938-27.406-13.438c-0.719-0.719-0.969-1.688-1.625-2.469L-0.004,512  l155.906-39.031C155.215,472.344,154.434,471.875,153.778,471.219z"
     id="path3" /><path
     style="fill:#ffffff"
     d="m 68.198953,337.49361 c -5.424817,-2.17941 -9.926173,-11.54747 -8.178513,-17.02083 0.616424,-1.93055 57.74831,-60.1258 126.95974,-129.3228 L 312.81913,65.337253 323.12862,75.646731 333.43809,85.956209 206.49056,212.84929 C 136.66941,282.64049 78.096011,339.6805 76.327442,339.60485 c -1.768568,-0.0756 -5.426388,-1.02569 -8.128489,-2.11124 z"
     id="path3337"
     inkscape:connector-curvature="0" /><path
     style="fill:#ffffff"
     d="M 403.2803,108.01266 336.45802,41.164297 353.62128,24.766614 C 374.12572,5.1767934 385.87696,0.12689475 407.0109,1.8233249 c 21.19875,1.701632 31.20095,8.2992861 65.49564,43.2022801 26.36392,26.831554 31.11329,32.734245 34.44023,42.803582 4.9577,15.004983 3.70144,36.660673 -2.87369,49.537193 -4.3715,8.561 -29.51187,37.49464 -32.57902,37.49464 -0.76532,0 -31.46152,-30.08176 -68.21376,-66.84836 z"
     id="path3339"
     inkscape:connector-curvature="0" /><path
     style="fill:#ffffff"
     d="m 178.21097,448.55502 c -3.30059,-2.67264 -4.94091,-6.33311 -4.94091,-11.02592 0,-6.39351 11.34286,-18.36787 126.18034,-133.20535 l 126.18034,-126.18034 10.86772,10.86771 10.8677,10.86772 -126.46084,126.33855 C 186.18289,460.80952 189.66154,457.82715 178.21097,448.55502 Z"
     id="path3341"
     inkscape:connector-curvature="0" /><path
     style="fill:#ffffff"
     d="m 116.0772,407.09207 c -13.49453,-8.22812 -19.501127,-25.94124 -12.97105,-38.25085 1.84372,-3.47555 60.0315,-62.93217 129.30616,-132.12581 l 125.95393,-125.80661 21.7287,21.64716 21.72869,21.64717 -125.30503,125.52711 c -71.66666,71.79367 -128.29342,126.82805 -132.28621,128.56624 -9.69671,4.22127 -19.97813,3.78147 -28.15519,-1.20441 z"
     id="path3343"
     inkscape:connector-curvature="0" /><path
     style="fill:#ffffff"
     d="m 2.6033898,507.82403 c 0,-1.07028 30.2876422,-122.93506 34.8737562,-140.31738 l 2.119233,-8.03233 7.609457,5.16391 c 4.185201,2.84016 10.261779,5.7547 13.503505,6.47676 5.469323,1.21825 5.918501,2.1606 6.23337,13.07737 0.646264,22.40643 15.74049,45.27677 36.521859,55.33685 5.06553,2.45219 15.68471,5.06313 23.59817,5.8021 11.18852,1.0448 14.39392,2.1181 14.41424,4.82648 0.0143,1.91559 2.42287,7.67503 5.35221,12.79876 3.72819,6.52101 4.53394,9.59298 2.68573,10.23954 -5.22399,1.82748 -142.5223596,35.76662 -144.6913417,35.76662 -1.2211038,0 -2.2201885,-0.51241 -2.2201885,-1.13868 z"
     id="path3345"
     inkscape:connector-curvature="0" /></svg>